# xmcd
#
# Track frame offsets: 
#        150
#        12371
#        23383
#        41811
#        51545
#        67971
#        79791
#
# Disc length: 1347 seconds
#
# Revision: 0
# Processed by: cddbd v1.5.2PL0 Copyright (c) Steve Scherf et al.
# Submitted via: ExactAudioCopy v1.3
#
DISCID=51054107
DTITLE=Sauce Boss - Blind Boy Billy
DYEAR=2019
DGENRE=Blues
TTITLE0=Blind Boy Billy
TTITLE1=I Will Play For Gumbo
TTITLE2=Lonely Girl
TTITLE3=Little Driver
TTITLE4=Dock Of The Bay
TTITLE5=What She Gonna Do
TTITLE6=Pleasure Of The Deep
EXTD=
EXTT0=
EXTT1=
EXTT2=
EXTT3=
EXTT4=
EXTT5=
EXTT6=
PLAYORDER=
